<?xml version="1.0" standalone="no"?>
<!DOCTYPE svg PUBLIC "-//W3C//DTD SVG 20010904//EN"
 "http://www.w3.org/TR/2001/REC-SVG-20010904/DTD/svg10.dtd">
<svg version="1.0" xmlns="http://www.w3.org/2000/svg"
 width="736.000000pt" height="736.000000pt" viewBox="0 0 736.000000 736.000000"
 preserveAspectRatio="xMidYMid meet">

<g transform="translate(0.000000,736.000000) scale(0.100000,-0.100000)"
fill="#000000" stroke="none">
<path d="M0 3680 l0 -3680 3680 0 3680 0 0 3680 0 3680 -3680 0 -3680 0 0
-3680z m4783 1400 c6 1 260 16 562 34 491 30 587 33 549 19 -10 -3 -1555 -883
-1563 -890 -10 -7 12 -14 163 -53 96 -24 181 -40 217 -40 l59 0 0 -205 0 -204
43 -11 c23 -6 74 -19 112 -30 39 -10 198 -51 355 -91 157 -39 286 -72 288 -74
2 -1 -79 -50 -180 -108 -191 -109 -384 -221 -667 -384 -170 -99 -268 -155
-618 -356 -207 -119 -505 -291 -1131 -653 -193 -112 -355 -204 -360 -204 -4 0
-7 171 -8 380 -1 209 -4 383 -7 386 -6 6 -1039 -52 -1092 -61 -18 -3 -26 -2
-20 4 6 5 210 124 455 264 838 478 1065 609 1090 625 25 16 25 16 -45 33 -38
10 -115 29 -170 43 -55 14 -125 26 -156 26 l-55 0 -2 201 c0 111 -3 203 -5
206 -5 4 -220 61 -549 144 -271 68 -255 57 -162 111 43 25 295 171 559 323
566 327 772 447 1355 785 239 139 523 304 630 365 107 62 227 131 265 153 l70
41 3 -389 c2 -302 5 -390 15 -390z"/>
<path d="M4620 5655 c-34 -21 -233 -136 -645 -373 -390 -224 -1452 -836 -1610
-927 -88 -51 -190 -110 -227 -131 -65 -36 -83 -54 -55 -54 6 0 148 -35 315
-77 l302 -77 0 -191 0 -190 298 -74 c163 -40 300 -77 304 -80 9 -8 -168 -112
-792 -466 -616 -350 -614 -349 -601 -353 10 -3 697 34 764 41 l27 4 0 -354 c0
-234 3 -353 10 -353 6 0 106 56 223 124 116 68 374 217 572 331 198 115 515
298 705 408 190 109 435 251 545 315 110 63 259 149 330 190 72 42 150 87 174
100 30 18 39 27 30 32 -8 4 -133 38 -279 74 -146 37 -282 71 -302 77 l-38 10
0 192 0 192 -300 74 c-165 41 -302 76 -305 79 -6 7 28 27 791 463 338 193 614
353 612 354 -2 1 -180 -9 -397 -22 -216 -13 -395 -22 -397 -20 -2 1 -4 159 -4
350 -1 191 -5 349 -8 351 -4 2 -23 -6 -42 -19z m-50 -475 l0 -319 63 5 c149
11 400 24 404 21 3 -3 -850 -494 -878 -505 -4 -2 -4 12 2 30 5 18 21 88 35
156 21 100 23 126 13 138 -10 12 -10 22 0 50 11 31 11 38 -5 55 -16 17 -16 19
-1 19 20 0 22 21 5 38 -9 9 -7 17 8 34 l19 22 -28 -20 c-16 -10 -140 -117
-275 -238 -256 -226 -281 -246 -445 -341 -54 -31 -97 -58 -95 -60 1 -2 163
-44 358 -95 725 -187 790 -204 800 -210 6 -4 10 -80 11 -193 l1 -187 32 -8
c17 -5 122 -31 233 -58 112 -27 203 -51 203 -54 -1 -3 -110 -68 -243 -145
-133 -76 -325 -187 -427 -246 -625 -360 -760 -437 -760 -429 0 5 4 10 9 12 17
6 951 811 951 819 0 4 -19 6 -42 3 -128 -13 -362 -33 -365 -30 -4 3 92 133
180 244 27 35 48 65 46 67 -2 2 -54 10 -114 18 -61 8 -207 29 -325 46 -118 17
-379 53 -580 81 -201 27 -378 53 -393 58 -31 8 -62 -33 374 497 32 38 56 71
55 72 -2 2 -45 -14 -97 -36 -219 -91 -339 -139 -339 -136 0 3 259 189 580 417
36 26 279 200 540 387 261 187 478 340 483 341 4 0 7 -144 7 -320z m-523 -976
c-4 -4 -377 92 -383 99 -3 3 82 55 188 116 l193 111 3 -162 c1 -88 1 -162 -1
-164z m-1230 -456 c-3 -8 -6 -5 -6 6 -1 11 2 17 5 13 3 -3 4 -12 1 -19z m62
-29 c17 -6 31 -15 31 -20 0 -5 -12 -4 -26 1 -14 6 -36 10 -50 10 -13 0 -24 5
-24 10 0 13 29 13 69 -1z m159 -38 c-8 -12 -18 -18 -21 -14 -4 3 0 15 10 25
21 24 29 15 11 -11z m105 -27 c-4 -11 -8 -12 -13 -4 -4 7 -18 8 -35 4 -20 -5
-26 -4 -21 5 4 6 23 11 41 11 27 0 33 -3 28 -16z m77 -3 c0 -5 3 -17 7 -27 4
-11 3 -15 -4 -11 -14 9 -24 47 -12 47 5 0 9 -4 9 -9z m-55 -11 c3 -5 1 -10 -4
-10 -6 0 -11 5 -11 10 0 6 2 10 4 10 3 0 8 -4 11 -10z m138 -30 c3 -11 1 -18
-4 -14 -5 3 -9 12 -9 20 0 20 7 17 13 -6z m51 -15 c3 -8 1 -15 -4 -15 -6 0
-10 7 -10 15 0 8 2 15 4 15 2 0 6 -7 10 -15z m349 -226 c-11 -11 -355 -210
-367 -212 -8 -2 -9 38 -6 304 0 13 31 7 190 -34 105 -28 187 -54 183 -58z
m183 -42 c-33 -29 -188 -164 -345 -301 -157 -137 -346 -303 -419 -369 -73 -65
-135 -117 -138 -115 -2 3 0 38 6 79 5 41 17 150 25 243 9 93 18 173 21 178 3
4 -6 8 -20 8 -13 0 -27 -6 -29 -12 -3 -8 -6 -7 -6 4 -1 11 9 18 27 21 15 2
-11 2 -58 0 -47 -2 -101 -7 -120 -10 -26 -4 -32 -2 -24 6 14 15 406 242 410
238 2 -2 7 -74 10 -161 5 -107 11 -155 18 -152 6 2 164 92 351 200 187 107
342 195 345 195 3 0 -22 -23 -54 -52z m-866 -307 c0 -11 -4 -20 -9 -20 -5 0
-7 9 -4 20 3 11 7 20 9 20 2 0 4 -9 4 -20z m-39 -67 c-12 -20 -14 -14 -5 12 4
9 9 14 11 11 3 -2 0 -13 -6 -23z"/>
<path d="M4226 4765 c-3 -9 -6 -26 -5 -38 1 -16 4 -12 10 12 10 34 6 55 -5 26z"/>
<path d="M3925 4340 c-3 -5 1 -10 9 -10 9 0 16 5 16 10 0 6 -4 10 -9 10 -6 0
-13 -4 -16 -10z"/>
<path d="M3425 3340 c-3 -5 1 -10 10 -10 9 0 13 5 10 10 -3 6 -8 10 -10 10 -2
0 -7 -4 -10 -10z"/>
</g>
</svg>
